<svg width="168" height="51" viewBox="0 0 168 51" fill="none" xmlns="http://www.w3.org/2000/svg">
<path d="M145.155 15.8739V26.1929H147.903C148.724 26.2015 149.542 26.0788 150.324 25.8295C151.021 25.606 151.668 25.2463 152.226 24.7712C152.761 24.3102 153.191 23.7387 153.485 23.096C153.779 22.4481 153.931 21.7449 153.931 21.0334C153.931 20.3219 153.779 19.6187 153.485 18.9708C153.191 18.327 152.762 17.7547 152.226 17.2936C151.668 16.8191 151.023 16.4601 150.326 16.2373C149.543 15.9879 148.725 15.8653 147.903 15.8739H145.155ZM141.823 38.1991V14.4482H148.773C149.929 14.4366 151.08 14.5871 152.194 14.8955C153.183 15.167 154.114 15.6177 154.941 16.2253C155.714 16.7917 156.349 17.5246 156.799 18.3698C157.228 19.1755 157.455 20.0732 157.462 20.986C157.468 21.8989 157.253 22.7996 156.835 23.6111C156.409 24.4368 155.808 25.1593 155.073 25.7277C154.39 26.2539 153.627 26.6683 152.814 26.9556C152.459 27.0842 152.098 27.1929 151.731 27.2811L151.964 27.3111C154.646 31.0476 157.329 34.7834 160.012 38.5186H155.726L148.235 27.6106H145.155V38.5366H141.823V38.1991ZM91.4643 38.1991V14.4482H106.56V15.8739H94.7868V26.9297H104.082V28.3533H94.7968V38.5366H91.4643V38.1991ZM64.6107 38.1991V14.4482H79.3775V15.8739H67.9432V25.7576H77.2403V27.1833H67.9432V37.1009H79.7487V38.5366H64.6107V38.1991ZM32.6426 38.1991V14.4482H35.9732V25.7576H48.2256V14.4482H51.5581V38.5366H48.2256V27.1833H35.9732V38.5366H32.6426V38.1991ZM6.56931 37.9994C5.8903 37.7136 5.24893 37.3455 4.65961 36.9033C4.10995 36.4864 3.62217 35.9936 3.21087 35.4397L3.05322 35.226L4.0869 34.0719L4.32037 34.4333C4.6351 34.9134 5.0237 35.3406 5.47178 35.6992C5.97298 36.1018 6.52437 36.4374 7.11209 36.6976C7.76535 36.9844 8.44783 37.1993 9.14751 37.3385C9.88019 37.4901 10.6263 37.5671 11.3745 37.5682C12.2591 37.5726 13.1406 37.4619 13.9966 37.2387C14.7428 37.051 15.4518 36.7384 16.0939 36.3142C16.6142 35.9676 17.0478 35.5057 17.361 34.9644C17.6464 34.449 17.7935 33.8684 17.7881 33.2792C17.7881 30.6995 14.9006 29.6232 11.7876 28.4632C9.87188 27.7483 7.87637 27.0056 6.34382 25.8535C4.77934 24.6794 3.70975 23.098 3.70975 20.7319C3.69939 19.8079 3.8794 18.8916 4.23856 18.0403C4.59389 17.2206 5.12691 16.4901 5.79904 15.9018C6.52048 15.2791 7.35714 14.8042 8.2615 14.5041C9.23909 14.1767 10.2638 14.0121 11.2947 14.017C12.0402 14.0163 12.7835 14.0966 13.5117 14.2566C14.2289 14.4174 14.9257 14.6585 15.589 14.9754C16.2314 15.2783 16.8345 15.6585 17.385 16.1075C17.9173 16.5428 18.3914 17.0448 18.7958 17.601L18.9734 17.8486L17.8639 18.7691L17.6643 18.4896C17.3198 18.0221 16.9175 17.6001 16.467 17.2337C16.0004 16.8533 15.4899 16.5302 14.9465 16.2712C13.8093 15.7295 12.5661 15.4472 11.3067 15.4446C10.5625 15.44 9.82207 15.5505 9.11159 15.7721C8.48088 15.9671 7.89352 16.2816 7.38148 16.6985C6.9253 17.0779 6.56098 17.5558 6.31588 18.0962C6.07047 18.6568 5.94734 19.2633 5.95469 19.8753C5.95469 22.4431 8.83621 23.4694 11.9652 24.6035H11.9791C15.9402 26.0272 20.2665 27.5986 20.2665 32.5205C20.2731 33.4116 20.0512 34.2895 19.6219 35.0703C19.1583 35.8843 18.5163 36.5827 17.7442 37.1129C16.8588 37.7237 15.8764 38.1801 14.8387 38.4627C13.6981 38.7813 12.5188 38.9406 11.3346 38.9359C10.4996 38.9373 9.66635 38.8591 8.84619 38.7023C8.06483 38.5518 7.30161 38.3189 6.56931 38.0074V37.9994ZM130.107 14.7757V38.5366H114.969V37.1109H126.775V27.1833H117.478V25.7576H126.775V15.8739H115.341V14.4482H130.107V14.7757Z" fill="#F4F4F4"/>
<path d="M163.612 11.7567C163.135 11.2804 162.508 10.9843 161.838 10.9186C161.168 10.8529 160.496 11.0219 159.936 11.3966C159.376 11.7713 158.963 12.3286 158.768 12.9737C158.573 13.6187 158.607 14.3114 158.865 14.934C159.123 15.5565 159.589 16.0702 160.183 16.3877C160.777 16.7051 161.463 16.8067 162.123 16.675C162.784 16.5433 163.378 16.1865 163.806 15.6654C164.233 15.1443 164.466 14.4912 164.466 13.8173C164.466 13.4344 164.391 13.0553 164.244 12.7017C164.098 12.348 163.883 12.0269 163.612 11.7567ZM161.553 10.4229C162.337 10.4209 163.099 10.6914 163.707 11.1883C164.315 11.6851 164.732 12.3775 164.886 13.1475C165.041 13.9175 164.925 14.7174 164.556 15.4108C164.188 16.1043 163.59 16.6485 162.866 16.9506C162.141 17.2526 161.334 17.294 160.583 17.0675C159.831 16.841 159.181 16.3607 158.744 15.7085C158.306 15.0563 158.109 14.2725 158.184 13.4907C158.26 12.7089 158.604 11.9776 159.158 11.4212C159.472 11.1051 159.845 10.8542 160.256 10.6829C160.667 10.5116 161.107 10.4232 161.553 10.4229Z" fill="#F4F4F4"/>
<path d="M160.89 12.0321V13.7772H161.289C161.408 13.7783 161.527 13.758 161.638 13.7173C161.742 13.6783 161.836 13.6177 161.914 13.5396C161.993 13.459 162.055 13.3633 162.095 13.2581C162.181 13.0343 162.181 12.787 162.095 12.5632C162.055 12.458 161.993 12.3622 161.914 12.2817C161.836 12.2036 161.742 12.143 161.638 12.104C161.527 12.0615 161.409 12.0405 161.289 12.0421L160.89 12.0321ZM160.409 15.7879V11.7945H161.407C161.575 11.7932 161.742 11.8188 161.902 11.8704C162.048 11.9182 162.184 11.9942 162.301 12.094C162.416 12.1931 162.507 12.3166 162.568 12.4554C162.63 12.5941 162.661 12.744 162.661 12.8957C162.661 13.0473 162.63 13.1972 162.568 13.3359C162.509 13.471 162.422 13.5921 162.313 13.6914C162.217 13.7767 162.107 13.8443 161.988 13.891C161.937 13.9132 161.884 13.9319 161.83 13.9469H161.864L163.033 15.8418H162.413L161.331 14.0088H160.886V15.8418H160.405L160.409 15.7879Z" fill="#F4F4F4"/>
</svg>
